<svg width="28" height="28" viewBox="0 0 28 28" fill="none" xmlns="http://www.w3.org/2000/svg">
<path d="M27.3242 14.0215C27.3242 14.4442 27.1563 14.8495 26.8574 15.1484C26.5585 15.4473 26.1532 15.6152 25.7305 15.6152H15.6367V25.709C15.6367 26.1317 15.4688 26.537 15.1699 26.8359C14.871 27.1348 14.4657 27.3027 14.043 27.3027C13.6203 27.3027 13.2149 27.1348 12.916 26.8359C12.6171 26.537 12.4492 26.1317 12.4492 25.709V15.6152H2.35547C1.93278 15.6152 1.5274 15.4473 1.22852 15.1484C0.929631 14.8495 0.761719 14.4442 0.761719 14.0215C0.761719 13.5988 0.929631 13.1934 1.22852 12.8945C1.5274 12.5956 1.93278 12.4277 2.35547 12.4277H12.4492V2.33398C12.4492 1.9113 12.6171 1.50592 12.916 1.20703C13.2149 0.908147 13.6203 0.740234 14.043 0.740234C14.4657 0.740234 14.871 0.908147 15.1699 1.20703C15.4688 1.50592 15.6367 1.9113 15.6367 2.33398V12.4277H25.7305C26.1532 12.4277 26.5585 12.5956 26.8574 12.8945C27.1563 13.1934 27.3242 13.5988 27.3242 14.0215Z" fill="#4F4F4F"/>
</svg>
