<svg width="43" height="53" viewBox="0 0 43 53" fill="none" xmlns="http://www.w3.org/2000/svg">
<path d="M21.5542 15.2894C19.5017 15.2894 16.3245 12.9557 12.9786 13.0401C8.56434 13.0963 4.51556 15.5987 2.23812 19.5631C-2.34487 27.5201 1.05723 39.2728 5.52776 45.7396C7.72085 48.8886 10.3076 52.4313 13.7378 52.3189C17.0274 52.1783 18.2646 50.182 22.2571 50.182C26.2215 50.182 27.3462 52.3189 30.8326 52.2345C34.3753 52.1783 36.6247 49.0292 38.7896 45.8521C41.292 42.1969 42.3323 38.6542 42.3885 38.4574C42.3042 38.4293 35.5 35.8145 35.4156 27.9418C35.3594 21.3626 40.7859 18.2135 41.0389 18.0729C37.9461 13.5462 33.1944 13.0401 31.5356 12.9276C27.2056 12.5902 23.5786 15.2894 21.5542 15.2894ZM28.8645 8.65388C30.6921 6.46079 31.9011 3.39608 31.5637 0.359497C28.9488 0.471963 25.7998 2.10272 23.916 4.29581C22.229 6.23585 20.7669 9.35679 21.1606 12.3371C24.0566 12.5621 27.0369 10.847 28.8645 8.65388Z" fill="#888888"/>
</svg>
